<svg xmlns="http://www.w3.org/2000/svg" width="116.369" height="68.725" viewBox="0 0 116.369 68.725">
  <g id="Group_225" data-name="Group 225" transform="translate(-130.855 -100.869)">
    <g id="Group_11" data-name="Group 11" transform="translate(130.855 100.869)">
      <g id="Group_9" data-name="Group 9" transform="translate(0.213 30.759)">
        <path id="Path_16" data-name="Path 16" d="M143.179,143.464a7.659,7.659,0,0,1-1.011,4.332c-1.011,1.588-2.657,2.339-5.024,2.339q-3.509,0-5.026-2.165c-.751-1.1-1.068-2.686-1.068-5.343v-6.179c0-2.946.376-4.563,1.329-5.69a5.678,5.678,0,0,1,4.649-1.819c2.513,0,4.217.9,5.17,2.657a7.835,7.835,0,0,1,.751,3.668h-3.9c-.2-2.282-.607-2.889-1.877-2.889-1.473,0-1.849.9-1.849,4.39v5.545c0,3.494.405,4.389,1.935,4.389,1.385,0,1.964-.924,2.022-3.234Z" transform="translate(-131.049 -128.938)" fill="#2c4d51"/>
        <path id="Path_17" data-name="Path 17" d="M151.423,129.175v13.891c0,2.917.346,3.61,1.82,3.61,1.616,0,1.963-.606,1.963-3.61V129.175h4.275v13.891c0,2.744-.232,3.9-1.011,4.967-1.068,1.473-2.571,2.079-5.141,2.079-2.743,0-4.36-.722-5.371-2.425-.607-.982-.81-2.108-.81-4.621V129.175Z" transform="translate(-129.506 -128.915)" fill="#2c4d51"/>
        <path id="Path_18" data-name="Path 18" d="M164.709,129.175h4.274V146.3h6.354v3.494H164.709Z" transform="translate(-127.823 -128.915)" fill="#2c4d51"/>
        <path id="Path_19" data-name="Path 19" d="M180.85,132.67h-3.668v-3.495h11.609v3.495h-3.669v17.125H180.85Z" transform="translate(-126.628 -128.915)" fill="#2c4d51"/>
        <path id="Path_20" data-name="Path 20" d="M197.629,129.175v13.891c0,2.917.346,3.61,1.82,3.61,1.617,0,1.964-.606,1.964-3.61V129.175h4.274v13.891c0,2.744-.231,3.9-1.01,4.967-1.07,1.473-2.571,2.079-5.142,2.079-2.743,0-4.359-.722-5.371-2.425-.607-.982-.809-2.108-.809-4.621V129.175Z" transform="translate(-125.078 -128.915)" fill="#2c4d51"/>
        <path id="Path_21" data-name="Path 21" d="M215.465,149.794H211.19V129.175h5.66c2.628,0,3.841.346,4.824,1.358,1.009,1.011,1.415,2.426,1.415,4.736,0,3.638-.636,5-2.687,5.92l3.438,8.606H219.1l-2.859-8.288h-.779Zm1.1-11.551c.953,0,1.357-.145,1.7-.577a3.671,3.671,0,0,0,.549-2.165c0-2.195-.521-2.917-2.166-2.917h-1.3v5.66Z" transform="translate(-123.368 -128.915)" fill="#2c4d51"/>
        <path id="Path_22" data-name="Path 22" d="M226.9,129.175h10.512v3.495h-6.237v5h5.256v3.495h-5.256V146.3h6.411v3.494H226.9Z" transform="translate(-121.863 -128.915)" fill="#2c4d51"/>
      </g>
      <g id="Group_10" data-name="Group 10">
        <path id="Path_23" data-name="Path 23" d="M134.975,120.749h-4.12v-19.88h5.179c2.505,0,3.787.446,4.76,1.615a7.6,7.6,0,0,1,1.254,4.816c0,2.367-.473,4.038-1.475,5.1-.975,1-2.2,1.364-4.539,1.364h-1.059Zm1.086-10.3c1.42,0,1.865-.78,1.865-3.258a5,5,0,0,0-.473-2.45c-.25-.418-.639-.585-1.392-.585h-1.2v6.293Z" transform="translate(-130.855 -100.869)" fill="#2c4d51"/>
        <path id="Path_24" data-name="Path 24" d="M151.04,120.749h-4.12v-19.88h5.456c2.534,0,3.7.334,4.651,1.31.974.974,1.364,2.339,1.364,4.565,0,3.508-.613,4.817-2.591,5.708l3.314,8.3h-4.565l-2.757-7.991h-.752Zm1.059-11.137c.918,0,1.307-.139,1.643-.557a3.537,3.537,0,0,0,.529-2.089c0-2.115-.5-2.812-2.089-2.812H150.93v5.457Z" transform="translate(-129.315 -100.869)" fill="#2c4d51"/>
        <path id="Path_25" data-name="Path 25" d="M164.4,100.869h4.121v19.88H164.4Z" transform="translate(-127.64 -100.869)" fill="#2c4d51"/>
        <path id="Path_26" data-name="Path 26" d="M174.667,100.869h3.786l3.592,10.163,3.565-10.163h3.814v19.88H185.5V109.863l-2.142,6.571h-2.618l-2.143-6.571v10.886h-3.926Z" transform="translate(-126.656 -100.869)" fill="#2c4d51"/>
        <path id="Path_27" data-name="Path 27" d="M198.111,116.962l-.808,3.786h-4.455l5.847-19.88h3.452L208,120.749H203.57l-.836-3.786Zm2.312-10.608-1.588,7.35h3.2Z" transform="translate(-124.914 -100.869)" fill="#2c4d51"/>
        <path id="Path_28" data-name="Path 28" d="M213.736,104.239H210.2v-3.37h11.193v3.37h-3.536v16.51h-4.119Z" transform="translate(-123.251 -100.869)" fill="#2c4d51"/>
        <path id="Path_29" data-name="Path 29" d="M226.9,100.869h10.135v3.37h-6.014v4.816h5.067v3.369h-5.067v4.956H237.2v3.369H226.9Z" transform="translate(-121.651 -100.869)" fill="#2c4d51"/>
      </g>
    </g>
    <rect id="Rectangle_17" data-name="Rectangle 17" width="28.33" height="4.049" transform="translate(247.225 169.594) rotate(180)" fill="#2c4d51"/>
  </g>
</svg>
